<?xml version="1.0" encoding="UTF-8"?>
<svg version="1.1" xmlns="http://www.w3.org/2000/svg" width="98" height="98">
<path d="M0 0 C32.34 0 64.68 0 98 0 C98 32.34 98 64.68 98 98 C65.66 98 33.32 98 0 98 C0 65.66 0 33.32 0 0 Z " fill="#434342" transform="translate(0,0)"/>
<path d="M0 0 C32.34 0 64.68 0 98 0 C98 32.34 98 64.68 98 98 C65.66 98 33.32 98 0 98 C0 65.66 0 33.32 0 0 Z M5 5 C5 34.04 5 63.08 5 93 C34.04 93 63.08 93 93 93 C93 63.96 93 34.92 93 5 C63.96 5 34.92 5 5 5 Z " fill="#000000" transform="translate(0,0)"/>
<path d="M0 0 C29.04 0 58.08 0 88 0 C88 1.65 88 3.3 88 5 C86.35 5 84.7 5 83 5 C83 30.74 83 56.48 83 83 C58.91 83 34.82 83 10 83 C10 81.35 10 79.7 10 78 C32.44 78 54.88 78 78 78 C78 53.91 78 29.82 78 5 C53.91 5 29.82 5 5 5 C5 32.39 5 59.78 5 88 C3.35 88 1.7 88 0 88 C0 58.96 0 29.92 0 0 Z " fill="#CECECE" transform="translate(5,5)"/>
<path d="M0 0 C24.09 0 48.18 0 73 0 C73 1.65 73 3.3 73 5 C50.56 5 28.12 5 5 5 C5 29.09 5 53.18 5 78 C29.09 78 53.18 78 78 78 C78 52.26 78 26.52 78 0 C79.65 0 81.3 0 83 0 C83 27.39 83 54.78 83 83 C55.61 83 28.22 83 0 83 C0 55.61 0 28.22 0 0 Z " fill="#474747" transform="translate(10,10)"/>
<path d="M0 0 C3.63 0 7.26 0 11 0 C11 2.31 11 4.62 11 7 C12.32 7 13.64 7 15 7 C15 8.32 15 9.64 15 11 C16.32 11 17.64 11 19 11 C19 14.63 19 18.26 19 22 C20.32 22 21.64 22 23 22 C23 24.64 23 27.28 23 30 C25.31 30 27.62 30 30 30 C30 28.68 30 27.36 30 26 C33.63 26 37.26 26 41 26 C41 26.99 41 27.98 41 29 C40.01 29 39.02 29 38 29 C38 30.65 38 32.3 38 34 C35.36 34 32.72 34 30 34 C30 34.99 30 35.98 30 37 C26.37 37 22.74 37 19 37 C19 38.32 19 39.64 19 41 C17.68 41 16.36 41 15 41 C15 42.32 15 43.64 15 45 C11.37 45 7.74 45 4 45 C4 43.68 4 42.36 4 41 C2.68 41 1.36 41 0 41 C0 39.68 0 38.36 0 37 C-1.32 37 -2.64 37 -4 37 C-4 36.01 -4 35.02 -4 34 C-5.32 34 -6.64 34 -8 34 C-8 31.36 -8 28.72 -8 26 C-6.68 26 -5.36 26 -4 26 C-4 27.32 -4 28.64 -4 30 C-2.68 30 -1.36 30 0 30 C0 31.32 0 32.64 0 34 C0.99 34 1.98 34 3 34 C3 34.99 3 35.98 3 37 C5.64 37 8.28 37 11 37 C11 35.68 11 34.36 11 33 C10.01 33 9.02 33 8 33 C8 29.37 8 25.74 8 22 C6.68 22 5.36 22 4 22 C4 20.68 4 19.36 4 18 C2.68 18 1.36 18 0 18 C0 17.01 0 16.02 0 15 C-1.32 15 -2.64 15 -4 15 C-4 11.04 -4 7.08 -4 3 C-2.68 3 -1.36 3 0 3 C0 2.01 0 1.02 0 0 Z " fill="#DBDBDB" transform="translate(34,23)"/>
<path d="M0 0 C1.65 0 3.3 0 5 0 C5 25.74 5 51.48 5 78 C-19.09 78 -43.18 78 -68 78 C-68 76.35 -68 74.7 -68 73 C-45.56 73 -23.12 73 0 73 C0 48.91 0 24.82 0 0 Z " fill="#ABABAB" transform="translate(83,10)"/>
<path d="M0 0 C24.09 0 48.18 0 73 0 C73 1.65 73 3.3 73 5 C50.56 5 28.12 5 5 5 C5 29.09 5 53.18 5 78 C3.35 78 1.7 78 0 78 C0 52.26 0 26.52 0 0 Z " fill="#5D5D5D" transform="translate(10,10)"/>
<path d="M0 0 C0.99 0 1.98 0 3 0 C3 1.32 3 2.64 3 4 C4.32 4 5.64 4 7 4 C7 4.99 7 5.98 7 7 C8.32 7 9.64 7 11 7 C11 8.32 11 9.64 11 11 C12.32 11 13.64 11 15 11 C15 14.63 15 18.26 15 22 C15.99 22 16.98 22 18 22 C18 23.32 18 24.64 18 26 C15.36 26 12.72 26 10 26 C10 25.01 10 24.02 10 23 C9.01 23 8.02 23 7 23 C7 21.68 7 20.36 7 19 C5.68 19 4.36 19 3 19 C3 17.68 3 16.36 3 15 C1.68 15 0.36 15 -1 15 C-1 17.64 -1 20.28 -1 23 C0.32 23 1.64 23 3 23 C3 23.99 3 24.98 3 26 C4.32 26 5.64 26 7 26 C7 27.32 7 28.64 7 30 C8.32 30 9.64 30 11 30 C11 31.32 11 32.64 11 34 C14.63 34 18.26 34 22 34 C22 33.01 22 32.02 22 31 C22.99 31 23.98 31 25 31 C25 31.99 25 32.98 25 34 C26.32 34 27.64 34 29 34 C29 34.99 29 35.98 29 37 C26.69 37 24.38 37 22 37 C22 38.32 22 39.64 22 41 C18.04 41 14.08 41 10 41 C10 40.01 10 39.02 10 38 C9.01 38 8.02 38 7 38 C7 36.68 7 35.36 7 34 C5.68 34 4.36 34 3 34 C3 32.68 3 31.36 3 30 C2.01 30 1.02 30 0 30 C0 28.68 0 27.36 0 26 C-1.65 26 -3.3 26 -5 26 C-5 25.01 -5 24.02 -5 23 C-5.99 23 -6.98 23 -8 23 C-8 16.73 -8 10.46 -8 4 C-5.36 4 -2.72 4 0 4 C0 2.68 0 1.36 0 0 Z " fill="#4E1908" transform="translate(27,34)"/>
<path d="M0 0 C3.96 0 7.92 0 12 0 C12 0.99 12 1.98 12 3 C12.99 3 13.98 3 15 3 C15 4.32 15 5.64 15 7 C16.32 7 17.64 7 19 7 C19 8.32 19 9.64 19 11 C19.99 11 20.98 11 22 11 C22 12.32 22 13.64 22 15 C23.32 15 24.64 15 26 15 C26 16.32 26 17.64 26 19 C27.32 19 28.64 19 30 19 C30 19.99 30 20.98 30 22 C27.36 22 24.72 22 22 22 C22 23.32 22 24.64 22 26 C19.69 26 17.38 26 15 26 C15 27.32 15 28.64 15 30 C12.69 30 10.38 30 8 30 C8 27.36 8 24.72 8 22 C6.68 22 5.36 22 4 22 C4 18.37 4 14.74 4 11 C2.68 11 1.36 11 0 11 C0 9.68 0 8.36 0 7 C-0.99 7 -1.98 7 -3 7 C-3 5.68 -3 4.36 -3 3 C-2.01 3 -1.02 3 0 3 C0 2.01 0 1.02 0 0 Z " fill="#6B2C19" transform="translate(49,23)"/>
<path d="M0 0 C1.32 0 2.64 0 4 0 C4 3.63 4 7.26 4 11 C5.32 11 6.64 11 8 11 C8 13.64 8 16.28 8 19 C10.31 19 12.62 19 15 19 C15 17.68 15 16.36 15 15 C18.63 15 22.26 15 26 15 C26 15.99 26 16.98 26 18 C25.01 18 24.02 18 23 18 C23 19.65 23 21.3 23 23 C20.36 23 17.72 23 15 23 C15 23.99 15 24.98 15 26 C10.05 26 5.1 26 0 26 C0 22.37 0 18.74 0 15 C-1.32 15 -2.64 15 -4 15 C-4 12.36 -4 9.72 -4 7 C-2.68 7 -1.36 7 0 7 C0 8.32 0 9.64 0 11 C0.99 11 1.98 11 3 11 C3 8.36 3 5.72 3 3 C2.01 3 1.02 3 0 3 C0 2.01 0 1.02 0 0 Z " fill="#9F9E9D" transform="translate(49,34)"/>
<path d="M0 0 C1.32 0 2.64 0 4 0 C4 1.32 4 2.64 4 4 C5.32 4 6.64 4 8 4 C8 5.32 8 6.64 8 8 C8.99 8 9.98 8 11 8 C11 8.99 11 9.98 11 11 C13.64 11 16.28 11 19 11 C19 9.68 19 8.36 19 7 C18.01 7 17.02 7 16 7 C16 6.01 16 5.02 16 4 C17.32 4 18.64 4 20 4 C20 4.99 20 5.98 20 7 C20.66 7 21.32 7 22 7 C22 5.02 22 3.04 22 1 C21.01 0.67 20.02 0.34 19 0 C20.32 0 21.64 0 23 0 C23 3.63 23 7.26 23 11 C24.32 11 25.64 11 27 11 C27 12.32 27 13.64 27 15 C25.68 15 24.36 15 23 15 C23 16.32 23 17.64 23 19 C19.37 19 15.74 19 12 19 C12 17.68 12 16.36 12 15 C10.68 15 9.36 15 8 15 C8 13.68 8 12.36 8 11 C6.68 11 5.36 11 4 11 C4 10.01 4 9.02 4 8 C2.68 8 1.36 8 0 8 C0 5.36 0 2.72 0 0 Z " fill="#C6C4C4" transform="translate(26,49)"/>
<path d="M0 0 C1.32 0 2.64 0 4 0 C4 0.99 4 1.98 4 3 C5.32 3 6.64 3 8 3 C8 4.32 8 5.64 8 7 C9.32 7 10.64 7 12 7 C12 10.63 12 14.26 12 18 C12.99 18 13.98 18 15 18 C15 19.32 15 20.64 15 22 C12.36 22 9.72 22 7 22 C7 21.01 7 20.02 7 19 C6.01 19 5.02 19 4 19 C4 17.68 4 16.36 4 15 C2.68 15 1.36 15 0 15 C0 13.68 0 12.36 0 11 C-0.99 10.67 -1.98 10.34 -3 10 C-2.01 10 -1.02 10 0 10 C0 9.01 0 8.02 0 7 C-0.99 7 -1.98 7 -3 7 C-2.67 5.68 -2.34 4.36 -2 3 C-1.34 3 -0.68 3 0 3 C0 2.01 0 1.02 0 0 Z " fill="#713320" transform="translate(30,38)"/>
<path d="M0 0 C2.31 0 4.62 0 7 0 C7 2.31 7 4.62 7 7 C4.36 7 1.72 7 -1 7 C-1 8.32 -1 9.64 -1 11 C-3.31 11 -5.62 11 -8 11 C-8 12.32 -8 13.64 -8 15 C-10.31 15 -12.62 15 -15 15 C-15 12.36 -15 9.72 -15 7 C-12.69 7 -10.38 7 -8 7 C-8 6.01 -8 5.02 -8 4 C-5.36 4 -2.72 4 0 4 C0 2.68 0 1.36 0 0 Z " fill="#371104" transform="translate(72,53)"/>
<path d="M0 0 C0.99 0 1.98 0 3 0 C3 1.32 3 2.64 3 4 C4.32 4 5.64 4 7 4 C7 5.32 7 6.64 7 8 C8.32 8 9.64 8 11 8 C11 8.99 11 9.98 11 11 C13.31 11 15.62 11 18 11 C18 12.32 18 13.64 18 15 C15.69 15 13.38 15 11 15 C11 16.32 11 17.64 11 19 C8.69 19 6.38 19 4 19 C4 16.36 4 13.72 4 11 C2.68 11 1.36 11 0 11 C0 7.37 0 3.74 0 0 Z " fill="#622917" transform="translate(53,34)"/>
<path d="M0 0 C1.32 0 2.64 0 4 0 C4 3.63 4 7.26 4 11 C5.32 11 6.64 11 8 11 C8 13.64 8 16.28 8 19 C7.67 17.68 7.34 16.36 7 15 C6.01 15 5.02 15 4 15 C4 18.63 4 22.26 4 26 C2.68 26 1.36 26 0 26 C0 22.37 0 18.74 0 15 C-1.32 15 -2.64 15 -4 15 C-4 12.36 -4 9.72 -4 7 C-2.68 7 -1.36 7 0 7 C0 8.32 0 9.64 0 11 C0.99 11 1.98 11 3 11 C3 8.36 3 5.72 3 3 C2.01 3 1.02 3 0 3 C0 2.01 0 1.02 0 0 Z " fill="#AFA8A6" transform="translate(49,34)"/>
<path d="M0 0 C0.99 0 1.98 0 3 0 C3 0.99 3 1.98 3 3 C4.32 3 5.64 3 7 3 C7 3.99 7 4.98 7 6 C4.69 6 2.38 6 0 6 C0 7.32 0 8.64 0 10 C-3.96 10 -7.92 10 -12 10 C-12 9.01 -12 8.02 -12 7 C-12.99 7 -13.98 7 -15 7 C-15 5.68 -15 4.36 -15 3 C-10.05 3 -5.1 3 0 3 C0 2.01 0 1.02 0 0 Z " fill="#381D10" transform="translate(49,65)"/>
<path d="M0 0 C1.32 0.33 2.64 0.66 4 1 C3.01 1 2.02 1 1 1 C1 3.31 1 5.62 1 8 C2.98 8 4.96 8 7 8 C7 6.68 7 5.36 7 4 C8.65 4 10.3 4 12 4 C12 5.32 12 6.64 12 8 C12.99 8 13.98 8 15 8 C15 9.32 15 10.64 15 12 C12.69 12 10.38 12 8 12 C8 12.99 8 13.98 8 15 C6.68 15 5.36 15 4 15 C4 14.01 4 13.02 4 12 C2.68 12 1.36 12 0 12 C0 8.04 0 4.08 0 0 Z " fill="#B5B3B2" transform="translate(30,26)"/>
<path d="M0 0 C0.99 0 1.98 0 3 0 C3 1.32 3 2.64 3 4 C4.32 4 5.64 4 7 4 C7 4.99 7 5.98 7 7 C8.32 7 9.64 7 11 7 C11 8.32 11 9.64 11 11 C12.32 11 13.64 11 15 11 C15 12.32 15 13.64 15 15 C12.36 15 9.72 15 7 15 C7 13.68 7 12.36 7 11 C6.01 11 5.02 11 4 11 C4 9.68 4 8.36 4 7 C2.68 7 1.36 7 0 7 C0 4.69 0 2.38 0 0 Z " fill="#422012" transform="translate(23,53)"/>
<path d="M0 0 C3.96 0 7.92 0 12 0 C12 0.99 12 1.98 12 3 C12.99 3 13.98 3 15 3 C15 4.32 15 5.64 15 7 C13.68 7 12.36 7 11 7 C11 6.01 11 5.02 11 4 C8.69 4 6.38 4 4 4 C4 4.99 4 5.98 4 7 C1.69 7 -0.62 7 -3 7 C-3 5.68 -3 4.36 -3 3 C-2.01 3 -1.02 3 0 3 C0 2.01 0 1.02 0 0 Z " fill="#4D1E10" transform="translate(49,23)"/>
<path d="M0 0 C0.99 0 1.98 0 3 0 C3 1.32 3 2.64 3 4 C4.32 4 5.64 4 7 4 C7 5.32 7 6.64 7 8 C8.32 8 9.64 8 11 8 C11 8.99 11 9.98 11 11 C7.37 11 3.74 11 0 11 C0 7.37 0 3.74 0 0 Z " fill="#441608" transform="translate(53,34)"/>
<path d="M0 0 C1.32 0 2.64 0 4 0 C4 3.63 4 7.26 4 11 C5.32 11 6.64 11 8 11 C8 12.32 8 13.64 8 15 C5.69 15 3.38 15 1 15 C0.67 12.69 0.34 10.38 0 8 C-0.99 7.67 -1.98 7.34 -3 7 C-3 6.01 -3 5.02 -3 4 C-1.68 4 -0.36 4 1 4 C1 4.99 1 5.98 1 7 C1.66 7 2.32 7 3 7 C3 5.02 3 3.04 3 1 C2.01 0.67 1.02 0.34 0 0 Z " fill="#C5C5C5" transform="translate(45,49)"/>
<path d="M0 0 C0.33 0 0.66 0 1 0 C1 2.31 1 4.62 1 7 C1.99 7 2.98 7 4 7 C4 8.32 4 9.64 4 11 C0.37 11 -3.26 11 -7 11 C-5.68 10.67 -4.36 10.34 -3 10 C-3.33 8.02 -3.66 6.04 -4 4 C-4.99 3.67 -5.98 3.34 -7 3 C-4.69 3 -2.38 3 0 3 C0 2.01 0 1.02 0 0 Z " fill="#ADACAB" transform="translate(45,57)"/>
<path d="M0 0 C2.31 0 4.62 0 7 0 C7 2.64 7 5.28 7 8 C4.69 8 2.38 8 0 8 C0 5.36 0 2.72 0 0 Z " fill="#211207" transform="translate(57,60)"/>
<path d="M0 0 C0.99 0 1.98 0 3 0 C3.33 2.64 3.66 5.28 4 8 C4.99 8 5.98 8 7 8 C7 8.99 7 9.98 7 11 C4.69 11 2.38 11 0 11 C0 7.37 0 3.74 0 0 Z " fill="#BFBFBF" transform="translate(53,49)"/>
<path d="M0 0 C1.32 0 2.64 0 4 0 C4 3.63 4 7.26 4 11 C4.99 11 5.98 11 7 11 C7 12.32 7 13.64 7 15 C4.36 15 1.72 15 -1 15 C-1 14.01 -1 13.02 -1 12 C-1.99 11.67 -2.98 11.34 -4 11 C-1.69 11 0.62 11 3 11 C3 7.7 3 4.4 3 1 C2.01 0.67 1.02 0.34 0 0 Z " fill="#8D6B60" transform="translate(38,45)"/>
<path d="M0 0 C0.99 0 1.98 0 3 0 C3 2.64 3 5.28 3 8 C3.99 8 4.98 8 6 8 C6 9.98 6 11.96 6 14 C5.34 14 4.68 14 4 14 C4 13.01 4 12.02 4 11 C2.68 11 1.36 11 0 11 C0 7.37 0 3.74 0 0 Z " fill="#DCDDDD" transform="translate(42,42)"/>
<path d="M0 0 C0.99 0 1.98 0 3 0 C3.33 0.99 3.66 1.98 4 3 C4.99 3.33 5.98 3.66 7 4 C7.33 5.98 7.66 7.96 8 10 C6.68 10 5.36 10 4 10 C4 9.01 4 8.02 4 7 C2.68 7 1.36 7 0 7 C0 4.69 0 2.38 0 0 Z " fill="#C5C5C4" transform="translate(34,57)"/>
<path d="M0 0 C1.32 0 2.64 0 4 0 C4 3.63 4 7.26 4 11 C2.68 11 1.36 11 0 11 C0 7.37 0 3.74 0 0 Z " fill="#767676" transform="translate(49,49)"/>
<path d="M0 0 C0.99 0 1.98 0 3 0 C3 2.31 3 4.62 3 7 C2.01 7 1.02 7 0 7 C0 9.31 0 11.62 0 14 C-0.33 13.01 -0.66 12.02 -1 11 C-1.99 11 -2.98 11 -4 11 C-4 9.35 -4 7.7 -4 6 C-2.68 6 -1.36 6 0 6 C0 4.02 0 2.04 0 0 Z " fill="#2A190E" transform="translate(23,46)"/>
<path d="M0 0 C1.32 0 2.64 0 4 0 C4 0.99 4 1.98 4 3 C7.3 3 10.6 3 14 3 C14.33 2.01 14.66 1.02 15 0 C15 1.32 15 2.64 15 4 C12.36 4 9.72 4 7 4 C7 4.99 7 5.98 7 7 C5.68 7 4.36 7 3 7 C3 6.01 3 5.02 3 4 C2.01 4 1.02 4 0 4 C0 2.68 0 1.36 0 0 Z " fill="#908A88" transform="translate(57,53)"/>
<path d="M0 0 C1.32 0 2.64 0 4 0 C4 1.32 4 2.64 4 4 C5.32 4 6.64 4 8 4 C8 4.99 8 5.98 8 7 C5.36 7 2.72 7 0 7 C0 4.69 0 2.38 0 0 Z " fill="#431405" transform="translate(71,38)"/>
<path d="M0 0 C2.31 0 4.62 0 7 0 C7 1.32 7 2.64 7 4 C6.01 4 5.02 4 4 4 C4 4.99 4 5.98 4 7 C2.68 7 1.36 7 0 7 C0 4.69 0 2.38 0 0 Z " fill="#C8C8C8" transform="translate(38,38)"/>
<path d="M0 0 C0.99 0 1.98 0 3 0 C3 2.31 3 4.62 3 7 C2.01 7.495 2.01 7.495 1 8 C0.67 8.99 0.34 9.98 0 11 C-1.32 11 -2.64 11 -4 11 C-4 10.01 -4 9.02 -4 8 C-3.01 7.67 -2.02 7.34 -1 7 C-0.67 4.69 -0.34 2.38 0 0 Z " fill="#531D0D" transform="translate(27,34)"/>
<path d="M0 0 C3.63 0 7.26 0 11 0 C11 0.99 11 1.98 11 3 C7.37 3 3.74 3 0 3 C0 2.01 0 1.02 0 0 Z " fill="#161006" transform="translate(38,72)"/>
<path d="M0 0 C2.31 0 4.62 0 7 0 C7 2.31 7 4.62 7 7 C6.01 7 5.02 7 4 7 C4 5.68 4 4.36 4 3 C2.68 3 1.36 3 0 3 C0 2.01 0 1.02 0 0 Z " fill="#DCDCDC" transform="translate(45,38)"/>
<path d="M0 0 C3.63 0 7.26 0 11 0 C11 0.99 11 1.98 11 3 C7.37 3 3.74 3 0 3 C0 2.01 0 1.02 0 0 Z " fill="#391004" transform="translate(49,23)"/>
<path d="M0 0 C1.32 0 2.64 0 4 0 C4 2.64 4 5.28 4 8 C2.68 8 1.36 8 0 8 C0 5.36 0 2.72 0 0 Z " fill="#7D7D7D" transform="translate(45,41)"/>
<path d="M0 0 C1.32 0 2.64 0 4 0 C4 1.32 4 2.64 4 4 C4.99 4 5.98 4 7 4 C7 5.32 7 6.64 7 8 C5.68 8 4.36 8 3 8 C3 6.68 3 5.36 3 4 C2.01 4 1.02 4 0 4 C0 2.68 0 1.36 0 0 Z " fill="#8F8F8F" transform="translate(38,30)"/>
<path d="M0 0 C0.33 0.99 0.66 1.98 1 3 C2.32 3 3.64 3 5 3 C5 4.32 5 5.64 5 7 C2.69 7 0.38 7 -2 7 C-2 5.68 -2 4.36 -2 3 C-1.34 3 -0.68 3 0 3 C0 2.01 0 1.02 0 0 Z " fill="#B9B9B9" transform="translate(48,57)"/>
<path d="M0 0 C0.99 0 1.98 0 3 0 C3 0.99 3 1.98 3 3 C4.32 3 5.64 3 7 3 C7 3.99 7 4.98 7 6 C4.69 6 2.38 6 0 6 C0 4.02 0 2.04 0 0 Z " fill="#211105" transform="translate(49,65)"/>
<path d="M0 0 C2.31 0 4.62 0 7 0 C7 1.32 7 2.64 7 4 C4.69 4 2.38 4 0 4 C0 2.68 0 1.36 0 0 Z " fill="#3D1405" transform="translate(42,68)"/>
<path d="M0 0 C2.31 0 4.62 0 7 0 C7 1.32 7 2.64 7 4 C4.69 4 2.38 4 0 4 C0 2.68 0 1.36 0 0 Z " fill="#1A1106" transform="translate(64,60)"/>
<path d="M0 0 C2.31 0 4.62 0 7 0 C7 1.32 7 2.64 7 4 C4.69 4 2.38 4 0 4 C0 2.68 0 1.36 0 0 Z " fill="#3E1305" transform="translate(72,53)"/>
<path d="M0 0 C2.31 0 4.62 0 7 0 C7 1.32 7 2.64 7 4 C4.69 4 2.38 4 0 4 C0 2.68 0 1.36 0 0 Z " fill="#421C10" transform="translate(57,49)"/>
<path d="M0 0 C1.32 0 2.64 0 4 0 C4 2.31 4 4.62 4 7 C4.99 7.33 5.98 7.66 7 8 C4.69 8 2.38 8 0 8 C0 6.68 0 5.36 0 4 C0.99 4 1.98 4 3 4 C3 3.01 3 2.02 3 1 C2.01 0.67 1.02 0.34 0 0 Z " fill="#C3C0BF" transform="translate(45,30)"/>
<path d="M0 0 C1.65 0 3.3 0 5 0 C5 1.65 5 3.3 5 5 C3.35 5 1.7 5 0 5 C0 3.35 0 1.7 0 0 Z " fill="#8B8B8B" transform="translate(5,88)"/>
<path d="M0 0 C0.99 0 1.98 0 3 0 C3 2.64 3 5.28 3 8 C2.01 8 1.02 8 0 8 C0 5.36 0 2.72 0 0 Z " fill="#DCDCDC" transform="translate(53,49)"/>
<path d="M0 0 C2.64 0 5.28 0 8 0 C8 0.99 8 1.98 8 3 C5.36 3 2.72 3 0 3 C0 2.01 0 1.02 0 0 Z " fill="#3B1104" transform="translate(19,38)"/>
<path d="M0 0 C1.32 0 2.64 0 4 0 C4 1.32 4 2.64 4 4 C3.01 4 2.02 4 1 4 C1 4.99 1 5.98 1 7 C1.99 7.33 2.98 7.66 4 8 C2.68 8 1.36 8 0 8 C0 5.36 0 2.72 0 0 Z " fill="#A1938F" transform="translate(26,49)"/>
<path d="M0 0 C1.32 0.33 2.64 0.66 4 1 C3.67 2.98 3.34 4.96 3 7 C2.01 7 1.02 7 0 7 C0 4.69 0 2.38 0 0 Z " fill="#706F6F" transform="translate(53,60)"/>
<path d="M0 0 C2.31 0 4.62 0 7 0 C7 0.99 7 1.98 7 3 C4.69 3 2.38 3 0 3 C0 2.01 0 1.02 0 0 Z " fill="#151005" transform="translate(72,57)"/>
<path d="M0 0 C2.31 0 4.62 0 7 0 C7 0.99 7 1.98 7 3 C4.69 3 2.38 3 0 3 C0 2.01 0 1.02 0 0 Z " fill="#4B1A0A" transform="translate(38,57)"/>
<path d="M0 0 C2.31 0 4.62 0 7 0 C7 0.99 7 1.98 7 3 C4.69 3 2.38 3 0 3 C0 2.01 0 1.02 0 0 Z " fill="#B6B6B6" transform="translate(61,53)"/>
<path d="M0 0 C2.31 0 4.62 0 7 0 C7 0.99 7 1.98 7 3 C4.69 3 2.38 3 0 3 C0 2.01 0 1.02 0 0 Z " fill="#3E1204" transform="translate(64,45)"/>
<path d="M0 0 C0.99 0 1.98 0 3 0 C3 2.31 3 4.62 3 7 C2.01 7 1.02 7 0 7 C0 4.69 0 2.38 0 0 Z " fill="#D3D3D3" transform="translate(42,42)"/>
<path d="M0 0 C0.99 0 1.98 0 3 0 C3 2.31 3 4.62 3 7 C2.01 7 1.02 7 0 7 C0 4.69 0 2.38 0 0 Z " fill="#CACACA" transform="translate(31,27)"/>
<path d="M0 0 C2.31 0 4.62 0 7 0 C7 0.99 7 1.98 7 3 C4.69 3 2.38 3 0 3 C0 2.01 0 1.02 0 0 Z " fill="#BABABA" transform="translate(38,23)"/>
<path d="M0 0 C0.99 0 1.98 0 3 0 C3 1.32 3 2.64 3 4 C-0.63 4 -4.26 4 -8 4 C-8 3.67 -8 3.34 -8 3 C-5.36 3 -2.72 3 0 3 C0 2.01 0 1.02 0 0 Z " fill="#978E8C" transform="translate(46,64)"/>
<path d="M0 0 C1.32 0 2.64 0 4 0 C4 3.63 4 7.26 4 11 C3.67 11 3.34 11 3 11 C3 8.36 3 5.72 3 3 C2.01 3 1.02 3 0 3 C0 2.01 0 1.02 0 0 Z " fill="#AAA19E" transform="translate(49,34)"/>
<path d="M0 0 C2.31 0 4.62 0 7 0 C7 1.32 7 2.64 7 4 C5.68 4 4.36 4 3 4 C3 3.01 3 2.02 3 1 C2.01 0.67 1.02 0.34 0 0 Z " fill="#502416" transform="translate(57,60)"/>
<path d="M0 0 C2.31 0 4.62 0 7 0 C7 1.32 7 2.64 7 4 C5.68 4 4.36 4 3 4 C3 3.01 3 2.02 3 1 C2.01 0.67 1.02 0.34 0 0 Z " fill="#989391" transform="translate(38,60)"/>
<path d="M0 0 C1.32 0 2.64 0 4 0 C4 1.32 4 2.64 4 4 C3.01 4 2.02 4 1 4 C0.67 4.99 0.34 5.98 0 7 C0 4.69 0 2.38 0 0 Z " fill="#4F1B0A" transform="translate(71,38)"/>
<path d="M0 0 C1.98 0 3.96 0 6 0 C6 0.99 6 1.98 6 3 C4.02 3 2.04 3 0 3 C0 2.01 0 1.02 0 0 Z " fill="#692916" transform="translate(35,53)"/>
<path d="M0 0 C0.99 0 1.98 0 3 0 C3 1.98 3 3.96 3 6 C2.01 6 1.02 6 0 6 C0 4.02 0 2.04 0 0 Z " fill="#380F02" transform="translate(23,46)"/>
</svg>
